<svg viewBox="0 0 600 400" xmlns="http://www.w3.org/2000/svg">
  <rect width="600" height="400" fill="#f8fafc"/>
  <rect x="60" y="40" width="480" height="300" rx="12" fill="none" stroke="#e2e8f0" stroke-width="3"/>
  <rect x="60" y="40" width="480" height="300" rx="12" fill="#f0f4ff" opacity="0.3"/>
  <path d="M60 250 Q200 240 300 245 Q400 250 540 242 L540 330 Q300 335 60 330 Z" fill="#22c55e" opacity="0.7"/>
  <path d="M80 260 Q180 252 300 256 Q420 260 520 254 L520 330 Q300 335 80 330 Z" fill="#22c55e" opacity="0.5"/>
  <path d="M90 240 Q160 235 220 238 Q260 240 270 236" fill="none" stroke="#22c55e" stroke-width="2.5" opacity="0.6"/>
  <path d="M320 242 Q370 238 410 240 Q440 242 450 238" fill="none" stroke="#22c55e" stroke-width="2" opacity="0.5"/>
  <path d="M150 200 Q170 195 190 200 Q210 205 225 198" fill="none" stroke="#1a1a1a" stroke-width="3" stroke-linecap="round"/>
  <path d="M155 215 Q175 210 195 215 Q215 220 240 213" fill="none" stroke="#1a1a1a" stroke-width="2.5" stroke-linecap="round"/>
  <circle cx="140" cy="210" r="8" fill="none" stroke="#a855f7" stroke-width="2"/>
  <circle cx="150" cy="205" r="6" fill="none" stroke="#6366f1" stroke-width="2"/>
  <circle cx="130" cy="208" r="5" fill="none" stroke="#a855f7" stroke-width="1.5"/>
  <circle cx="145" cy="215" r="4" fill="none" stroke="#6366f1" stroke-width="1.5"/>
  <ellipse cx="420" cy="190" rx="18" ry="8" fill="#6366f1" opacity="0.4"/>
  <ellipse cx="435" cy="185" rx="16" ry="7" fill="#a855f7" opacity="0.35"/>
  <circle cx="140" cy="120" r="3" fill="#f59e0b" opacity="0.6"/>
  <circle cx="160" cy="100" r="2.5" fill="#f59e0b" opacity="0.5"/>
  <circle cx="120" cy="110" r="2" fill="#f59e0b" opacity="0.4"/>
  <circle cx="450" cy="130" r="2.5" fill="#f59e0b" opacity="0.5"/>
  <circle cx="470" cy="115" r="3" fill="#f59e0b" opacity="0.6"/>
  <circle cx="430" cy="105" r="2" fill="#f59e0b" opacity="0.4"/>
  <circle cx="310" cy="150" r="3" fill="#f59e0b" opacity="0.5"/>
  <circle cx="330" cy="140" r="2" fill="#f59e0b" opacity="0.4"/>
  <path d="M60 40 Q300 30 540 40" fill="none" stroke="#e2e8f0" stroke-width="1.5" opacity="0.5"/>
</svg>