<svg viewBox="0 0 600 400" xmlns="http://www.w3.org/2000/svg">
  <!-- Pot body -->
  <path d="M 260 330 H 340 V 280 C 330 270, 270 270, 260 280 Z" fill="#e2e8f0"/>
  <!-- Pot rim -->
  <rect x="245" y="270" width="110" height="10" fill="#e2e8f0"/>

  <!-- Soil -->
  <path d="M 250 270 C 275 260, 325 260, 350 270 Z" fill="#1a1a1a"/>

  <!-- Stem -->
  <path d="M 300 270 C 295 240, 295 210, 300 180" stroke="#22c55e" stroke-width="8" fill="none" stroke-linecap="round"/>

  <!-- Stylized Monstera Leaf with subtle fenestration suggestions -->
  <path d="M 300 180 C 280 170, 260 140, 270 100 Q 275 95 280 100 Q 285 95 290 100 C 295 90, 305 90, 310 100 Q 315 95 320 100 Q 325 95 330 100 C 340 100, 330 140, 320 170, 300 180 Z" fill="#22c55e"/>

  <!-- Roots (representing "Rooted Understanding" / fundamental principles) -->
  <path d="M 300 330 V 370" stroke="#6366f1" stroke-width="4" fill="none" stroke-linecap="round"/>
  <path d="M 280 330 C 270 340, 270 360, 280 370" stroke="#6366f1" stroke-width="4" fill="none" stroke-linecap="round"/>
  <path d="M 320 330 C 330 340, 330 360, 320 370" stroke="#6366f1" stroke-width="4" fill="none" stroke-linecap="round"/>

  <!-- Abstract Signals / Intuitive Understanding (concentric arcs above the leaf) -->
  <path d="M 280 70 Q 300 50 320 70" stroke="#f59e0b" stroke-width="3" fill="none" stroke-linecap="round"/>
  <path d="M 270 60 Q 300 30 330 60" stroke="#f59e0b" stroke-width="3" fill="none" stroke-linecap="round"/>
  <path d="M 260 50 Q 300 10 340 50" stroke="#f59e0b" stroke-width="3" fill="none" stroke-linecap="round"/>
</svg>