<svg viewBox="0 0 600 400" xmlns="http://www.w3.org/2000/svg">
  <!-- Plant Pot -->
  <rect x="220" y="280" width="100" height="80" fill="#1a1a1a" rx="8"/>
  <rect x="210" y="270" width="120" height="20" fill="#1a1a1a" rx="5"/>
  <rect x="215" y="275" width="110" height="10" fill="#a855f7" rx="3"/> <!-- Soil -->

  <!-- Monstera Plant -->
  <!-- Stem -->
  <path d="M270 270 L275 150 L280 80" stroke="#22c55e" stroke-width="8" fill="none" stroke-linecap="round"/>
  <!-- Leaf blade - simplified Monstera silhouette -->
  <path d="M280 80 C310 30, 390 50, 380 130 C370 180, 310 190, 280 150 C290 120, 290 100, 280 80 Z" fill="#22c55e"/>
  <!-- Fenestrations (cutouts) -->
  <path d="M330 90 C335 85, 345 85, 340 95 C335 105, 325 105, 330 90 Z" fill="#f8fafc"/>
  <path d="M350 110 C355 105, 365 105, 360 115 C355 125, 345 125, 350 110 Z" fill="#f8fafc"/>
  <path d="M300 110 C305 105, 315 105, 310 115 C305 125, 295 125, 300 110 Z" fill="#f8fafc"/>

  <!-- Watering Can -->
  <!-- Body -->
  <path d="M400 360 L420 280 C440 260, 480 260, 500 280 L520 360 Z" fill="#6366f1"/>
  <!-- Spout -->
  <path d="M490 290 L550 250 L540 240 L480 280 Z" fill="#6366f1"/>
  <!-- Handle -->
  <path d="M500 280 C530 230, 490 200, 440 220" stroke="#6366f1" stroke-width="10" fill="none" stroke-linecap="round"/>

  <!-- Sun Rays -->
  <polygon points="100 80, 120 70, 110 50" fill="#f59e0b"/>
  <polygon points="150 60, 170 50, 160 30" fill="#f59e0b"/>
  <polygon points="180 90, 200 80, 190 60" fill="#f59e0b"/>
  <polygon points="120 120, 140 110, 130 90" fill="#f59e0b"/>
  <polygon points="160 140, 180 130, 170 110" fill="#f59e0b"/>
</svg>